<svg xmlns="http://www.w3.org/2000/svg" viewBox="0 0 1000 500">
  <path d="M297.5,250.9l-0.4-1.3l-1.7-0.7l-1.3,0.7l-0.2,1.5l1.1,1.1L297.5,250.9z M295.8,245.7l-1.5,0.2l-0.4,0.9l0.9,0.7l1.3-0.4 L295.8,245.7z M287.8,244.8l-1.1-0.2l-0.9,0.7l0.4,1.1l1.3,0.2L287.8,244.8z M283.7,243.9l-1.5-0.4l-0.9,0.9l0.7,1.1l1.5,0 L283.7,243.9z M279.4,243.5l-1.3-0.7l-1.1,0.7l0.2,1.3l1.5,0.4L279.4,243.5z M274.6,243.3l-1.5-0.9l-1.1,0.9l0.4,1.3l1.7,0.2 L274.6,243.3z M269.8,243.3l-1.7-0.9l-1.1,1.1l0.7,1.3l1.7,0L269.8,243.3z M264.6,243.7l-1.7-1.1l-1.3,1.1l0.9,1.3l1.7-0.2 L264.6,243.7z M259.4,244.6l-1.9-1.1l-1.3,1.3l1.1,1.3l1.9-0.4L259.4,244.6z M253.9,245.9l-1.9-1.3l-1.5,1.3l1.1,1.5l2.1-0.4 L253.9,245.9z M248.3,247.6l-2.1-1.5l-1.5,1.5l1.3,1.5l2.1-0.2L248.3,247.6z M242.4,249.8l-2.1-1.7l-1.7,1.7l1.5,1.5l2.3-0.2 L242.4,249.8z M236.3,252.4l-2.3-1.9l-1.7,1.9l1.7,1.7l2.3,0L236.3,252.4z M230,255.5l-2.3-2.1l-1.9,2.1l1.9,1.7l2.3,0.2 L230,255.5z M223.5,259.1l-2.5-2.3l-1.9,2.3l2.1,1.7l2.5,0.4L223.5,259.1z M216.8,263.3l-2.5-2.5l-2.1,2.5l2.3,1.9l2.5,0.4 L216.8,263.3z M209.9,268l-2.7-2.7l-2.1,2.7l2.5,1.9l2.7,0.7L209.9,268z M202.8,273.3l-2.7-2.9l-2.3,2.9l2.7,2.1l2.7,0.7 L202.8,273.3z M195.5,279.1l-2.9-3.1l-2.5,3.1l2.9,2.1l2.9,0.9L195.5,279.1z M188,285.5l-3.1-3.3l-2.5,3.3l3.1,2.3l3.1,0.9 L188,285.5z M180.3,292.4l-3.1-3.5l-2.7,3.5l3.3,2.5l3.1,1.1L180.3,292.4z M172.4,299.8l-3.3-3.7l-2.9,3.7l3.5,2.5l3.3,1.3 L172.4,299.8z M164.3,307.8l-3.5-3.9l-2.9,3.9l3.7,2.7l3.5,1.5L164.3,307.8z M156,316.3l-3.5-4.1l-3.1,4.1l3.9,2.9l3.5,1.5 L156,316.3z M147.5,325.4l-3.7-4.3l-3.1,4.3l4.1,2.9l3.7,1.7L147.5,325.4z M138.8,335l-3.9-4.5l-3.3,4.5l4.3,3.1l3.9,1.9 L138.8,335z M129.9,345.2l-3.9-4.7l-3.5,4.7l4.5,3.1l3.9,2.1L129.9,345.2z M120.8,355.9l-4.1-4.9l-3.5,4.9l4.7,3.3l4.1,2.1 L120.8,355.9z M111.5,367.2l-4.3-5.1l-3.7,5.1l4.9,3.5l4.3,2.3L111.5,367.2z M102,379l-4.3-5.3l-3.9,5.3l5.1,3.5l4.3,2.5L102,379z M92.3,391.3l-4.5-5.5l-3.9,5.5l5.3,3.7l4.5,2.7L92.3,391.3z M82.4,404.1l-4.7-5.7l-4.1,5.7l5.5,3.9l4.7,2.9L82.4,404.1z M72.3,417.4l-4.7-5.9l-4.1,5.9l5.7,3.9l4.7,3.1L72.3,417.4z M62,431.3l-4.9-6.1l-4.3,6.1l5.9,4.1l4.9,3.1L62,431.3z M51.5,445.6l-5.1-6.3l-4.5,6.3l6.1,4.3l5.1,3.3L51.5,445.6z M40.8,460.5l-5.1-6.5l-4.5,6.5l6.3,4.3l5.1,3.5L40.8,460.5z M29.9,475.9l-5.3-6.7l-4.7,6.7l6.5,4.5l5.3,3.7L29.9,475.9z M500,100l2,1l2-1l-2-1L500,100z M520,110l3,2l3-2l-3-2L520,110z M545,125l4,3l4-3l-4-3L545,125z M575,145l5,4l5-4l-5-4L575,145z M610,170l6,5l6-5l-6-5L610,170z M650,200l7,6l7-6l-7-6L650,200z M695,235l8,7l8-7l-8-7L695,235z M745,275l9,8l9-8l-9-8L745,275z M800,320l10,9l10-9l-10-9L800,320z M860,370l11,10l11-10l-11-10L860,370z M925,425l12,11l12-11l-12-11L925,425z" fill="#6B7280"/>
</svg>

